<svg version="1.1" id="Layer_1" xmlns="http://www.w3.org/2000/svg" xmlns:xlink="http://www.w3.org/1999/xlink" x="0px" y="0px"
	 width="100%" viewBox="0 0 295 348" enable-background="new 0 0 295 348" xml:space="preserve">

<path fill="#F4F4F4" opacity="1.000000" stroke="none" 
	d="
M104.017471,322.000580 
	C102.802505,325.904083 101.587532,329.807587 100.318604,333.884460 
	C73.287384,333.884460 46.326935,333.884460 18.498928,333.884460 
	C51.580189,225.202530 84.571045,116.817589 117.904976,7.305577 
	C149.681427,116.904823 181.096207,225.256592 212.652008,334.094788 
	C207.727249,334.094788 203.090317,334.098846 198.453400,334.094086 
	C178.620682,334.073730 158.783585,333.816345 138.958191,334.186371 
	C133.713806,334.284241 131.260529,332.779236 130.787186,327.727051 
	C130.711029,326.914185 130.332062,326.129669 129.931671,324.629028 
	C127.829803,316.624237 125.889320,309.322449 123.955078,301.610382 
	C121.917816,292.142029 119.874321,283.083923 117.882965,273.702332 
	C117.618782,272.790985 117.302444,272.203156 116.986115,271.615326 
	C116.689644,272.415588 116.393173,273.215881 115.927879,274.363770 
	C114.093208,281.466583 112.427361,288.221832 110.552673,295.238037 
	C110.326660,295.938660 110.309494,296.378265 110.111130,297.049316 
	C109.899147,297.848083 109.868362,298.415405 109.625992,299.300354 
	C107.615433,307.078827 105.816452,314.539703 104.017471,322.000580 
M148.123566,150.775894 
	C148.123566,150.775894 148.187302,150.758896 148.128860,149.930603 
	C145.761292,140.984818 143.393738,132.039017 141.026169,123.093231 
	C113.169495,188.208786 94.524971,256.167694 73.579956,323.757324 
	C81.212662,323.757324 87.838112,323.757324 94.526703,323.757324 
	C94.792908,322.929596 95.009285,322.319855 95.185867,321.698792 
	C103.092758,293.889984 111.088104,266.105804 118.845474,238.255341 
	C121.258408,229.592422 123.594421,220.833664 124.905067,211.962112 
	C125.919312,205.096893 125.184258,204.988220 132.337723,204.983673 
	C133.503952,204.982925 134.670731,205.006821 135.836288,204.978897 
	C140.671875,204.863098 143.400635,206.310745 144.959274,211.799194 
	C155.316528,248.270309 166.186905,284.595886 176.988602,320.939636 
	C177.326019,322.074982 178.707077,323.704254 179.641464,323.731415 
	C187.401703,323.956879 195.171310,323.859192 203.309967,323.859192 
	C200.055923,312.863220 197.158356,302.329193 193.822556,291.935852 
	C182.877258,257.833557 171.761078,223.786118 160.735840,189.709427 
	C156.876541,177.781158 153.090561,165.829178 149.161057,153.256790 
	C149.087311,152.836288 149.013580,152.415802 149.128860,151.415039 
	C148.812271,151.193787 148.495667,150.972549 148.123566,150.775894 
M160.067047,292.193390 
	C158.522369,287.065948 156.977676,281.938507 155.276215,276.290649 
	C153.229675,280.497528 153.368851,281.238129 157.985565,293.781525 
	C160.901169,302.881683 163.816757,311.981873 166.732361,321.082031 
	C167.183289,320.950531 167.634201,320.819031 168.085129,320.687561 
	C168.130783,320.052795 168.369080,319.358154 168.193222,318.792267 
	C165.517426,310.181854 162.787430,301.588287 160.067047,292.193390 
M77.118332,285.377716 
	C84.694763,261.756989 92.271194,238.136246 99.847633,214.515503 
	C99.210655,214.307114 98.573685,214.098740 97.936707,213.890366 
	C89.498268,237.140747 81.706734,260.611908 74.748337,285.209137 
	C74.944725,285.968842 75.141113,286.728577 75.337494,287.488281 
	C75.794006,286.995209 76.250526,286.502106 77.118332,285.377716 
M138.124405,257.342651 
	C138.124405,257.342651 137.928848,257.000702 138.119583,256.196411 
	C136.147217,248.190887 134.174850,240.185364 132.550064,231.416229 
	C133.540817,228.554413 134.531586,225.692596 135.886215,221.779724 
	C136.849854,224.520752 137.362885,225.980042 137.875916,227.439331 
	C138.234360,227.333817 138.592819,227.228302 138.951279,227.122787 
	C138.338058,223.023376 137.724838,218.923965 137.111618,214.824539 
	C136.645813,214.641724 136.180008,214.458908 135.714203,214.276093 
	C133.857758,219.878738 132.001297,225.481369 129.583466,231.601196 
	C127.690910,237.673416 125.617516,243.697250 123.974716,249.836304 
	C123.014160,253.425827 121.554245,257.481018 122.352486,260.844055 
	C127.320374,281.774292 132.863403,302.567993 138.315247,323.794525 
	C145.268890,323.794525 152.087189,323.794525 159.208344,323.794525 
	C158.320343,320.879456 157.591385,318.341644 156.775574,315.832123 
	C151.909866,300.864838 147.024094,285.904114 142.032959,270.296967 
	C141.984039,269.864990 141.935120,269.432983 142.094131,268.246979 
	C141.129425,265.801971 140.164719,263.356964 139.101913,260.272217 
	C139.041290,259.846375 138.980667,259.420532 139.057922,258.403992 
	C138.736832,258.181152 138.415756,257.958282 138.124405,257.342651 
M100.319481,145.086746 
	C98.039101,138.504837 95.758720,131.922928 93.062485,124.140709 
	C91.844688,128.147110 90.954781,131.074799 89.563492,134.573471 
	C88.093178,139.049759 86.622864,143.526062 84.975571,148.720459 
	C84.361397,150.479752 83.747231,152.239044 82.908279,154.354065 
	C82.908279,154.354065 82.905151,154.774872 82.242012,155.208511 
	C78.965477,166.032303 75.875267,176.916702 72.377266,187.668442 
	C62.118511,219.200638 51.654026,250.665848 41.360409,282.186768 
	C36.916500,295.794830 32.694504,309.475372 28.219181,323.604492 
	C36.930077,323.604492 45.426327,323.604492 53.552925,323.604492 
	C54.567684,320.342712 55.479603,317.448395 56.368843,314.547119 
	C61.270187,298.555695 66.215668,282.577606 71.051155,266.566315 
	C77.119278,246.473541 83.095703,226.353073 89.817841,205.789444 
	C93.573265,205.589401 97.367523,205.640137 101.065292,205.067703 
	C102.575348,204.833939 104.656906,203.540344 105.142761,202.232651 
	C107.796272,195.090729 110.089920,187.811798 112.363899,180.535156 
	C112.777756,179.210861 112.987595,177.500671 112.511124,176.271057 
	C108.565590,166.088821 104.436378,155.977768 100.319481,145.086746 
M112.409927,60.510143 
	C107.845680,75.284187 103.298851,90.063652 98.707397,104.829239 
	C97.172905,109.763969 96.418785,113.999352 98.820366,119.565071 
	C105.271011,134.514587 110.237190,150.104645 115.895348,165.723358 
	C116.270706,164.967300 116.680511,164.302292 116.945747,163.583893 
	C122.279625,149.136688 127.594452,134.682449 132.919601,120.232040 
	C133.934143,117.478973 134.729416,114.357048 139.225449,116.928108 
	C131.984802,92.231293 124.926079,68.154961 117.501923,42.832211 
	C116.221245,47.894077 115.196686,51.943642 113.749847,56.563290 
	C113.468506,57.696865 113.187164,58.830441 112.409927,60.510143 
M70.504990,306.070404 
	C72.465202,300.023865 74.425415,293.977295 76.385628,287.930756 
	C75.574059,287.701721 74.762489,287.472687 73.950920,287.243683 
	C70.146111,299.371796 66.341301,311.499939 62.536491,323.628052 
	C64.040833,323.802063 64.636375,323.609558 64.757004,323.255371 
	C66.618820,317.788452 68.418938,312.300476 70.504990,306.070404 
M146.044205,255.293640 
	C147.449158,259.497223 148.854111,263.700775 150.259048,267.904358 
	C150.778519,267.739349 151.297989,267.574341 151.817459,267.409363 
	C148.448517,255.800446 145.079575,244.191528 141.710632,232.582626 
	C141.034119,232.772064 140.357605,232.961487 139.681091,233.150925 
	C141.778259,240.262268 143.875443,247.373627 146.044205,255.293640 
z"/>
<path fill="#EAEDEF" opacity="1.000000" stroke="none" 
	d="
M269.311768,280.591980 
	C271.645294,282.787659 273.011963,285.151520 271.484711,288.510040 
	C269.500916,292.872528 265.667145,292.891754 261.305267,292.584900 
	C260.286316,291.676300 259.763702,291.193176 259.546143,290.348694 
	C260.703705,284.909058 260.618774,279.923981 258.420410,275.095337 
	C257.636383,279.502197 257.543762,283.886902 257.716644,288.261108 
	C257.750122,289.108704 258.819977,289.915375 259.128998,290.882782 
	C258.550903,291.788971 258.255554,292.553314 257.960205,293.317657 
	C256.900177,293.463837 255.840134,293.609985 254.418549,293.170441 
	C253.980530,291.187714 253.904053,289.790680 253.827560,288.393646 
	C253.718262,284.085266 253.838745,279.753723 253.408401,275.477661 
	C253.172424,273.132660 252.007126,270.881195 251.143585,267.898254 
	C250.369507,266.464264 249.712738,265.719543 249.055969,264.974823 
	C249.055969,264.974823 248.997437,264.992065 249.013947,264.591797 
	C247.726166,261.782471 246.421906,259.373413 245.117645,256.964325 
	C244.774597,256.177185 244.431549,255.390030 244.328674,254.125000 
	C244.253418,253.089355 243.937973,252.531601 243.622543,251.973831 
	C243.518860,249.929703 243.415192,247.885590 243.722717,245.366211 
	C244.129730,244.272980 244.125534,243.654984 244.121338,243.037003 
	C244.275208,235.959839 249.553421,231.739319 253.781647,226.159973 
	C254.520233,225.246704 254.925415,224.817307 254.927536,224.385956 
	C254.977661,214.183792 255.022217,203.981079 254.935852,193.779587 
	C254.927917,192.841751 254.033722,191.911423 253.551041,190.977615 
	C249.553558,187.536926 245.013168,184.553009 241.661331,180.569107 
	C231.964767,169.044067 231.936157,155.484177 241.401428,142.585571 
	C241.995850,143.823410 242.126389,144.646088 242.192764,145.810089 
	C234.784073,160.548691 235.763306,169.266449 246.848648,180.885529 
	C250.076172,184.268433 254.485153,186.524155 258.523926,189.575317 
	C259.424469,190.320847 260.153687,190.787643 261.015198,191.544678 
	C262.396057,192.995941 263.644531,194.156967 264.896851,195.492081 
	C264.900635,195.666168 265.000000,195.999939 265.082062,196.208160 
	C265.316498,196.680618 265.521759,196.894043 265.873657,197.058685 
	C265.967499,197.060715 266.121826,196.953918 266.094849,197.322250 
	C271.662262,206.489685 271.191711,215.202927 265.399902,223.973541 
	C263.995117,225.043411 262.888000,225.984787 261.445129,226.932434 
	C260.403656,227.618591 259.697937,228.298477 258.854126,229.313263 
	C257.792114,229.925873 256.750885,230.016068 255.962112,230.509644 
	C245.576859,237.008347 243.826752,251.009903 252.132599,262.183380 
	C252.677307,262.384369 253.074814,262.364258 253.472290,262.344147 
	C253.033478,261.893707 252.594666,261.443268 252.086975,260.577759 
	C252.215958,258.784149 252.413803,257.405609 252.935028,255.860840 
	C253.158218,252.457977 253.058029,249.221359 252.951019,245.619690 
	C254.254578,242.814087 255.564972,240.373566 257.140137,237.765503 
	C258.306763,236.730865 259.208588,235.863785 260.308899,234.875122 
	C260.759613,234.550705 260.921051,234.291321 261.123688,233.656982 
	C264.090424,230.984360 266.925110,228.630157 270.046631,226.139679 
	C275.962585,218.432358 277.397888,210.078857 274.933197,200.810150 
	C274.739075,200.353607 274.547455,200.155457 274.255096,199.666183 
	C274.150726,198.852890 274.086151,198.389709 273.947998,197.738861 
	C273.733459,197.311676 273.537262,197.132721 273.215576,196.631104 
	C272.546509,195.168045 271.947693,194.088181 271.233551,192.702042 
	C270.497833,191.222534 269.877472,190.049271 269.803528,188.891403 
	C271.077881,188.870895 271.805817,188.835007 272.533722,188.799133 
	C282.687897,201.508270 281.688934,219.089127 270.059784,231.615372 
	C268.488861,233.307510 266.745453,234.839523 264.536346,236.850021 
	C264.217804,243.801697 264.444794,250.349014 264.671814,256.896332 
	C264.760010,261.691132 264.685669,266.497101 265.013367,271.275482 
	C265.151978,273.296844 266.136017,275.260223 266.791809,277.978943 
	C262.886597,281.086365 264.002747,284.732208 264.218903,288.290619 
	C265.782684,288.167480 267.087463,288.064728 268.726074,287.935699 
	C268.921051,285.491302 269.116425,283.041626 269.311768,280.591980 
M260.132568,251.569962 
	C260.132568,248.513794 260.132568,245.457626 260.132568,241.824310 
	C255.714890,246.150650 255.806442,267.019501 260.141052,269.558777 
	C260.141052,263.699280 260.141052,258.122345 260.132568,251.569962 
M260.173492,198.667526 
	C259.732056,197.909775 259.290649,197.152023 258.849213,196.394287 
	C258.575775,196.468185 258.302338,196.542084 258.028900,196.615982 
	C258.028900,205.378128 258.028900,214.140259 258.028900,222.902405 
	C258.490631,222.951660 258.952332,223.000916 259.414062,223.050171 
	C262.903198,215.514130 260.035889,207.343094 260.173492,198.667526 
M265.713928,214.632431 
	C267.149200,210.286819 267.424957,206.091949 263.998505,201.609467 
	C263.998505,207.145615 263.998505,211.925125 263.998505,217.588760 
	C264.780975,216.282120 265.099731,215.749817 265.713928,214.632431 
z"/>
<path fill="#EAEDEF" opacity="1.000000" stroke="none" 
	d="
M279.038391,131.498352 
	C274.634979,134.969971 270.231598,138.441589 265.224426,141.985199 
	C264.483093,142.712036 264.345612,143.366913 264.208099,144.021774 
	C264.477448,148.591339 264.834686,153.157776 264.996582,157.731140 
	C265.276062,165.624863 265.434113,173.522858 266.408936,182.239517 
	C267.347443,184.267502 267.520081,185.475052 267.204346,186.543610 
	C264.829651,184.871338 262.943329,183.338058 260.988373,181.583160 
	C260.510132,181.162491 260.100525,180.963470 259.467712,180.477966 
	C256.925201,178.707565 254.222290,177.597839 252.349915,175.678055 
	C241.500427,164.553879 243.051315,153.650635 254.444244,142.206100 
	C255.848419,141.445236 256.932220,140.752335 258.358154,140.027573 
	C260.514648,139.157806 262.329041,138.319885 264.464630,137.465408 
	C265.187195,137.298111 265.588593,137.147369 266.190796,136.927704 
	C266.650818,136.722702 266.848907,136.525330 267.312958,136.163559 
	C269.453857,134.767471 271.267670,133.474487 273.384338,132.107941 
	C274.550903,131.461853 275.414642,130.889313 276.947632,130.660629 
	C278.090729,131.169098 278.564575,131.333740 279.038391,131.498352 
M257.020569,159.502335 
	C257.860229,164.609970 255.077072,170.295090 259.801117,174.834595 
	C259.801117,165.106857 259.801117,155.379105 259.801117,145.651367 
	C255.157486,149.313828 257.633362,154.196396 257.020569,159.502335 
M253.055710,162.119873 
	C253.055710,158.305679 253.055710,154.491486 253.055710,149.843201 
	C247.608917,158.445648 247.999954,165.099945 254.016968,169.997589 
	C253.679672,167.431381 253.389343,165.222610 253.055710,162.119873 
z"/>
<path fill="#121213" opacity="1.000000" stroke="none" 
	d="
M277.485077,83.932449 
	C277.918121,83.974709 278.351196,84.016983 278.840485,84.256317 
	C278.896729,84.453377 278.866882,84.594452 278.478333,84.463501 
	C277.775848,84.717697 277.461914,85.102844 276.941467,85.752502 
	C277.819977,87.012787 278.904968,88.008560 280.046936,89.340622 
	C281.307922,91.134453 282.511993,92.592003 283.757935,94.339417 
	C284.278351,95.470268 284.756866,96.311241 285.296814,97.556374 
	C285.745819,101.359634 286.133484,104.758743 286.108795,108.123550 
	C284.015686,109.247078 282.331848,110.400459 280.655273,111.564331 
	C279.571411,112.316734 278.498169,113.084465 277.469086,113.395836 
	C277.024017,108.266167 276.530060,103.585983 276.007568,98.541885 
	C270.701752,88.107712 259.926056,81.920891 248.659760,83.765755 
	C247.891846,83.751114 247.449432,83.852997 246.601639,83.825287 
	C244.720154,83.834526 243.108185,83.641472 241.795258,84.178932 
	C238.739700,85.429771 236.865952,87.769493 237.667694,91.246353 
	C238.491394,94.818451 241.479385,94.385239 244.146622,94.164955 
	C245.657272,94.040192 247.147491,93.668106 250.027313,93.167404 
	C248.085968,95.213936 247.266129,96.456474 246.124420,97.213684 
	C242.049606,99.916214 237.532379,99.920731 233.592316,97.485497 
	C231.509933,96.198433 229.222382,93.291168 229.177063,91.071503 
	C229.085999,86.610893 232.853394,84.369560 236.738251,82.878288 
	C237.974976,82.403549 239.270706,81.898438 240.569550,81.798431 
	C252.312485,80.894241 264.171936,78.864120 275.273346,85.082001 
	C275.671143,85.304832 276.732819,84.342453 277.485077,83.932449 
z"/>
<path fill="#EAEDEF" opacity="1.000000" stroke="none" 
	d="
M276.036072,98.905800 
	C276.530060,103.585983 277.024017,108.266167 277.328369,113.695702 
	C275.410339,117.595543 273.681976,120.746040 271.634827,124.011703 
	C268.016724,126.677895 264.717407,129.228912 261.073975,131.800781 
	C256.869415,133.998795 253.008957,136.175980 249.086304,137.860718 
	C248.939758,136.711838 248.855408,136.055389 248.771057,135.398941 
	C252.258423,133.402740 253.514740,130.531693 253.235107,126.432503 
	C252.839035,120.626511 253.077850,114.777206 253.492737,108.477951 
	C254.943665,108.009262 255.947189,108.009056 257.033936,108.470398 
	C257.117188,115.594849 257.117188,122.257736 257.117188,128.920624 
	C257.533386,129.048431 257.949585,129.176239 258.365814,129.304031 
	C259.019745,128.219574 260.226227,127.141357 260.238586,126.049637 
	C260.322937,118.591019 260.133942,111.129715 260.083160,103.668938 
	C260.065369,101.056252 258.795410,100.522850 256.145203,101.221581 
	C254.853607,101.074936 253.984970,101.029945 253.116333,100.984962 
	C253.114197,100.042542 253.112061,99.100113 253.376587,97.722610 
	C253.643250,97.287521 254.045975,97.011452 254.245850,96.909492 
	C254.694366,96.626328 254.877579,96.393623 255.397797,96.093124 
	C256.385681,96.327660 257.009247,96.859612 257.550812,96.786240 
	C263.545654,95.974014 264.567078,99.706444 264.579285,104.370987 
	C264.596283,110.856224 264.583588,117.341530 264.583588,124.043709 
	C265.425262,123.510887 266.836578,122.777023 268.067017,121.812469 
	C275.582550,115.920952 274.552948,107.998650 273.488220,100.000916 
	C274.557648,99.632744 275.296875,99.269272 276.036072,98.905800 
z"/>
<path fill="#060509" opacity="1.000000" stroke="none" 
	d="
M104.396729,322.009766 
	C105.816452,314.539703 107.615433,307.078827 109.976288,299.356995 
	C110.882660,300.015106 111.144127,300.976471 111.587097,301.845306 
	C112.972137,304.562012 113.791946,308.573395 116.001656,309.626648 
	C119.296982,311.197388 120.824318,307.528107 121.993385,304.683807 
	C122.399734,303.695190 123.283241,302.902710 123.948837,302.020660 
	C125.889320,309.322449 127.829803,316.624237 129.721985,324.339569 
	C129.186157,324.821014 128.543594,324.711975 128.234100,324.983124 
	C122.756111,329.782349 116.771416,326.259338 111.089783,325.785461 
	C108.895737,325.602478 106.875443,323.336151 104.396729,322.009766 
z"/>
<path fill="#EAEDEF" opacity="1.000000" stroke="none" 
	d="
M277.422180,83.563248 
	C276.732819,84.342453 275.671143,85.304832 275.273346,85.082001 
	C264.171936,78.864120 252.312485,80.894241 240.569550,81.798431 
	C239.270706,81.898438 237.974976,82.403549 236.738251,82.878288 
	C232.853394,84.369560 229.085999,86.610893 229.177063,91.071503 
	C229.222382,93.291168 231.509933,96.198433 233.592316,97.485497 
	C237.532379,99.920731 242.049606,99.916214 246.124420,97.213684 
	C247.266129,96.456474 248.085968,95.213936 250.027313,93.167404 
	C247.147491,93.668106 245.657272,94.040192 244.146622,94.164955 
	C241.479385,94.385239 238.491394,94.818451 237.667694,91.246353 
	C236.865952,87.769493 238.739700,85.429771 241.795258,84.178932 
	C243.108185,83.641472 244.720154,83.834526 246.614166,84.190109 
	C246.857529,85.559906 246.682983,86.435265 246.220444,87.314590 
	C243.967026,88.204704 242.001602,89.090858 240.036179,89.977020 
	C241.742264,90.337654 243.434723,90.820145 245.159576,91.012764 
	C246.178146,91.126518 247.247955,90.781403 248.701782,90.588684 
	C247.820450,89.222572 247.204056,88.267105 247.164917,87.223450 
	C248.129517,87.096344 248.516876,87.057419 249.112122,87.330116 
	C252.411011,89.293694 252.616821,91.990631 251.982162,94.991974 
	C247.276428,101.717789 238.386398,104.538261 231.307693,100.417824 
	C228.126862,98.566299 225.405579,94.665718 224.146820,91.104294 
	C222.712418,87.045914 226.023468,83.422760 229.465012,81.923790 
	C234.687714,79.649040 240.397217,78.425835 245.976318,77.070335 
	C247.998444,76.579033 250.240112,76.991348 253.136734,76.991348 
	C252.772339,74.875870 252.515244,73.383286 252.558777,71.470085 
	C253.906052,73.009224 254.952682,74.968979 256.036224,76.997887 
	C257.867340,76.845818 259.646698,76.698036 261.314392,76.559540 
	C261.926758,74.868805 262.466919,73.377396 263.479858,72.224525 
	C264.310577,72.708481 264.668518,72.853889 265.026489,72.999298 
	C264.847198,75.859116 265.685516,77.641624 268.840881,78.629692 
	C271.860657,79.575302 274.533783,81.627953 277.422180,83.563248 
z"/>
<path fill="#0E0F10" opacity="1.000000" stroke="none" 
	d="
M252.249054,95.222351 
	C252.616821,91.990631 252.411011,89.293694 249.192474,87.049057 
	C249.082214,86.073700 249.099472,85.691010 249.483765,85.442230 
	C259.779205,86.898132 268.106934,90.805542 273.157990,100.005623 
	C274.552948,107.998650 275.582550,115.920952 268.067017,121.812469 
	C266.836578,122.777023 265.425262,123.510887 264.583588,124.043709 
	C264.583588,117.341530 264.596283,110.856224 264.579285,104.370987 
	C264.567078,99.706444 263.545654,95.974014 257.550812,96.786240 
	C257.009247,96.859612 256.385681,96.327660 255.122894,96.073669 
	C254.312393,96.384155 254.179184,96.697807 254.045990,97.011459 
	C254.045975,97.011452 253.643250,97.287521 253.412170,97.366257 
	C252.959381,96.780907 252.737671,96.116821 252.249054,95.222351 
z"/>
<path fill="#DFDFDF" opacity="1.000000" stroke="none" 
	d="
M249.017517,65.905907 
	C249.003998,65.603096 248.885681,65.349060 248.556824,64.671310 
	C243.329422,55.630356 242.033478,46.989071 247.862991,38.155621 
	C248.183334,37.670197 248.009705,36.858765 248.066010,36.199081 
	C249.774567,35.772274 251.483139,35.345463 253.929672,34.968487 
	C254.919022,35.697067 255.170395,36.375813 255.233582,37.354446 
	C253.996460,38.713493 252.803085,39.665237 251.922501,40.849545 
	C246.916382,47.582432 246.619278,60.394772 256.850494,64.526413 
	C255.977570,65.201042 254.987991,65.632187 253.960510,65.761070 
	C252.597061,65.932106 251.204025,65.867188 249.621765,65.766617 
	C249.419846,65.629570 249.017517,65.905907 249.017517,65.905907 
z"/>
<path fill="#181819" opacity="1.000000" stroke="none" 
	d="
M249.823700,65.903656 
	C251.204025,65.867188 252.597061,65.932106 253.960510,65.761070 
	C254.987991,65.632187 255.977570,65.201042 257.220642,64.460594 
	C259.946747,63.334564 262.436279,62.652386 265.150665,62.083878 
	C265.581848,62.457893 265.788147,62.718239 265.832916,63.323418 
	C265.138458,65.793419 264.605530,67.918587 263.870178,70.233566 
	C263.447510,70.910912 263.227325,71.398445 263.007111,71.885979 
	C262.466919,73.377396 261.926758,74.868805 261.314392,76.559540 
	C259.646698,76.698036 257.867340,76.845818 256.036224,76.997887 
	C254.952682,74.968979 253.906052,73.009224 252.463989,71.095116 
	C251.387299,70.070915 250.706024,69.001068 250.134460,67.467140 
	C250.104034,66.636589 249.963867,66.270126 249.823700,65.903656 
z"/>
<path fill="#19181D" opacity="1.000000" stroke="none" 
	d="
M265.994446,62.978584 
	C265.788147,62.718239 265.581848,62.457893 265.331726,61.788006 
	C270.043335,57.355503 272.909729,52.509476 272.239288,45.878067 
	C272.722900,45.439655 272.950745,45.134186 273.469849,44.856438 
	C274.005463,44.134041 274.566071,43.320171 274.430267,42.646725 
	C274.121033,41.113094 273.470062,39.648365 272.986755,37.842789 
	C273.035248,37.321426 273.054962,37.112907 273.074646,36.904388 
	C274.687073,39.578758 276.462585,42.175507 277.798004,44.981689 
	C278.134949,45.689693 277.320923,47.327400 276.570831,48.065002 
	C275.796692,48.826244 273.018250,47.738998 274.213837,50.246273 
	C274.702454,51.271004 276.554962,51.645367 278.880463,52.910492 
	C276.885254,56.152348 274.812439,59.520222 272.162231,62.667946 
	C269.721344,62.624725 267.857880,62.801655 265.994446,62.978584 
M273.189056,58.433815 
	C272.628723,58.454384 272.068359,58.474953 271.508026,58.495522 
	C271.550476,58.774773 271.592926,59.054020 271.635406,59.333267 
	C272.077240,59.169220 272.519104,59.005177 273.189056,58.433815 
z"/>
<path fill="#CFCFCF" opacity="1.000000" stroke="none" 
	d="
M267.420563,327.664520 
	C269.030670,328.369995 270.216034,329.039429 271.401428,329.708862 
	C270.277344,330.431702 269.180420,331.725098 268.024506,331.780212 
	C262.575500,332.039917 257.102570,332.131470 251.656082,331.886078 
	C250.225845,331.821625 248.859543,330.338074 247.463867,329.506195 
	C247.663162,328.880310 247.862457,328.254395 248.061737,327.628510 
	C254.373093,327.628510 260.684448,327.628510 267.420563,327.664520 
z"/>
<path fill="#D4D6D9" opacity="1.000000" stroke="none" 
	d="
M250.129883,308.378967 
	C247.791382,305.642334 248.053604,304.071686 251.767395,304.088287 
	C258.069702,304.116425 264.372192,304.096008 271.001373,304.096008 
	C271.078094,305.680145 271.137573,306.908447 271.212097,308.446747 
	C264.087433,308.446747 257.306183,308.446747 250.129883,308.378967 
z"/>
<path fill="#EAEDEF" opacity="1.000000" stroke="none" 
	d="
M286.521149,108.157852 
	C286.133484,104.758743 285.745819,101.359634 285.880310,97.465187 
	C286.790833,96.905571 287.179260,96.841286 287.567688,96.777008 
	C292.861176,110.162544 288.596405,121.313858 279.264282,131.415924 
	C278.564575,131.333740 278.090729,131.169098 277.146912,130.391739 
	C279.025055,126.184113 281.373230,122.589226 283.953003,118.692993 
	C284.963470,114.980377 285.742310,111.569115 286.521149,108.157852 
z"/>
<path fill="#232327" opacity="1.000000" stroke="none" 
	d="
M247.893555,35.922829 
	C248.009705,36.858765 248.183334,37.670197 247.862991,38.155621 
	C242.033478,46.989071 243.329422,55.630356 248.369354,64.566856 
	C238.677246,58.883179 236.859222,44.365536 244.825562,36.715969 
	C245.505814,36.062763 246.742767,35.989338 247.893555,35.922829 
z"/>
<path fill="#F4F4F4" opacity="1.000000" stroke="none" 
	d="
M264.131256,295.653931 
	C267.519562,295.765930 271.250702,294.656647 270.949921,300.087067 
	C263.359161,300.087067 255.836777,300.087067 248.265839,300.087067 
	C247.629227,296.683289 249.005814,295.429810 252.263687,295.572113 
	C256.060211,295.737915 259.868317,295.637970 264.131256,295.653931 
z"/>
<path fill="#DFDFDF" opacity="1.000000" stroke="none" 
	d="
M259.997192,323.977112 
	C256.695984,323.982819 253.839584,324.278534 251.089050,323.866882 
	C249.790344,323.672546 248.694534,322.122345 246.600372,320.472198 
	C261.500305,318.417358 269.856812,319.471741 271.829987,323.977051 
	C267.823181,323.977051 264.154297,323.977051 259.997192,323.977112 
z"/>
<path fill="#F4F4F4" opacity="1.000000" stroke="none" 
	d="
M271.036865,314.326050 
	C270.601501,315.214691 270.044434,316.039337 269.479401,316.044800 
	C263.521729,316.102478 257.555817,316.173645 251.609299,315.886353 
	C250.205338,315.818542 248.865524,314.423065 247.496185,313.638336 
	C247.711975,313.080353 247.927750,312.522339 248.143524,311.964325 
	C254.871262,311.964325 261.600586,311.894775 268.324799,312.049225 
	C269.200592,312.069366 270.049896,313.242615 271.036865,314.326050 
z"/>
<path fill="#232327" opacity="1.000000" stroke="none" 
	d="
M273.178619,44.828720 
	C272.950745,45.134186 272.722900,45.439655 272.189209,45.583649 
	C268.599976,39.669449 263.853455,35.217506 255.421768,37.054558 
	C255.170395,36.375813 254.919022,35.697067 254.312500,34.889793 
	C254.031219,33.803246 254.105103,32.845226 254.224731,31.294096 
	C257.770477,32.239220 260.994476,33.098587 264.609406,33.979126 
	C265.000336,34.000301 264.993164,33.995663 264.993164,33.995663 
	C265.491211,34.359051 265.989227,34.722439 266.790039,35.339870 
	C268.582214,37.602165 269.501526,37.152134 270.007111,34.918102 
	C270.844818,35.492081 271.682526,36.066063 272.797424,36.772217 
	C273.054962,37.112907 273.035248,37.321426 272.699036,37.864983 
	C272.647888,40.409588 272.913239,42.619156 273.178619,44.828720 
z"/>
<path fill="#E3E3E5" opacity="1.000000" stroke="none" 
	d="
M253.470093,191.442108 
	C254.033722,191.911423 254.927917,192.841751 254.935852,193.779587 
	C255.022217,203.981079 254.977661,214.183792 254.927536,224.385956 
	C254.925415,224.817307 254.520233,225.246704 253.971725,225.850586 
	C253.556793,214.651642 253.472961,203.279114 253.470093,191.442108 
z"/>
<path fill="#E3E3E5" opacity="1.000000" stroke="none" 
	d="
M264.839111,256.538635 
	C264.444794,250.349014 264.217804,243.801697 264.365875,237.153534 
	C264.829468,243.428757 264.917969,249.804825 264.839111,256.538635 
z"/>
<path fill="#E3E3E5" opacity="1.000000" stroke="none" 
	d="
M269.274139,280.339661 
	C269.116425,283.041626 268.921051,285.491302 268.726074,287.935699 
	C267.087463,288.064728 265.782684,288.167480 264.218903,288.290619 
	C264.002747,284.732208 262.886597,281.086365 266.928955,278.340637 
	C267.752258,278.678009 268.494354,279.382690 269.274139,280.339661 
z"/>
<path fill="#A5A7A9" opacity="1.000000" stroke="none" 
	d="
M265.832916,63.323418 
	C267.857880,62.801655 269.721344,62.624725 271.822021,62.727989 
	C270.025604,65.661636 267.991943,68.315094 265.492859,70.935440 
	C264.709167,70.616142 264.390900,70.329956 264.072632,70.043762 
	C264.605530,67.918587 265.138458,65.793419 265.832916,63.323418 
z"/>
<path fill="#E3E3E5" opacity="1.000000" stroke="none" 
	d="
M255.216614,338.581543 
	C255.419037,334.531555 257.267334,334.051758 262.698090,336.204193 
	C261.757507,340.835907 260.459137,341.328430 255.216614,338.581543 
z"/>
<path fill="#D5DBE4" opacity="1.000000" stroke="none" 
	d="
M256.950714,108.008842 
	C255.947189,108.009056 254.943665,108.009262 253.564240,108.015549 
	C253.117279,105.966690 253.046204,103.911758 253.045715,101.420898 
	C253.984970,101.029945 254.853607,101.074936 256.274780,101.566238 
	C256.868439,104.011314 256.909576,106.010078 256.950714,108.008842 
z"/>
<path fill="#EAEDEF" opacity="1.000000" stroke="none" 
	d="
M283.716034,94.049545 
	C282.511993,92.592003 281.307922,91.134453 280.351501,89.043488 
	C280.822998,87.892967 281.046875,87.375870 281.270752,86.858780 
	C282.875458,88.896309 284.480194,90.933838 285.522888,93.439316 
	C284.545929,93.954681 284.130981,94.002121 283.716034,94.049545 
z"/>
<path fill="#EAEDEF" opacity="1.000000" stroke="none" 
	d="
M241.569916,141.781509 
	C242.663956,140.523972 243.757996,139.266449 245.771454,137.988098 
	C247.516281,138.088181 248.341690,138.209091 248.968399,138.623962 
	C247.513199,139.945831 246.256683,140.973724 244.570679,141.997223 
	C243.284103,141.922394 242.427017,141.851959 241.569916,141.781509 
z"/>
<path fill="#E3E3E5" opacity="1.000000" stroke="none" 
	d="
M245.090012,257.330566 
	C246.421906,259.373413 247.726166,261.782471 249.029785,264.565735 
	C247.706863,262.525543 246.384628,260.111176 245.090012,257.330566 
z"/>
<path fill="#19181D" opacity="1.000000" stroke="none" 
	d="
M269.874817,34.658936 
	C269.501526,37.152134 268.582214,37.602165 267.036011,35.253128 
	C267.419769,34.162617 267.860382,33.412891 268.300995,32.663166 
	C268.781494,33.242031 269.261993,33.820896 269.874817,34.658936 
z"/>
<path fill="#232327" opacity="1.000000" stroke="none" 
	d="
M267.692719,186.682587 
	C267.520081,185.475052 267.347443,184.267502 266.760956,182.490326 
	C267.496826,182.934830 268.646545,183.948959 269.300781,184.992859 
	C268.450439,185.702911 268.095520,186.383224 267.781372,187.070969 
	C267.655090,186.916122 267.611938,186.784180 267.692719,186.682587 
z"/>
<path fill="#E3E3E5" opacity="1.000000" stroke="none" 
	d="
M281.186157,86.590462 
	C281.046875,87.375870 280.822998,87.892967 280.294556,88.707199 
	C278.904968,88.008560 277.819977,87.012787 277.317810,85.842422 
	C278.222717,85.310028 278.544800,84.952240 278.866882,84.594452 
	C278.866882,84.594452 278.896729,84.453377 278.969269,84.452637 
	C279.728394,85.075317 280.415009,85.698738 281.186157,86.590462 
z"/>
<path fill="#E3E3E5" opacity="1.000000" stroke="none" 
	d="
M253.641998,288.661285 
	C253.904053,289.790680 253.980530,291.187714 254.047150,292.999390 
	C253.843689,291.918976 253.650070,290.423950 253.641998,288.661285 
z"/>
<path fill="#E3E3E5" opacity="1.000000" stroke="none" 
	d="
M259.241058,290.710052 
	C259.763702,291.193176 260.286316,291.676300 260.890076,292.519836 
	C260.166870,293.094910 259.362549,293.309570 258.259216,293.420959 
	C258.255554,292.553314 258.550903,291.788971 259.078613,290.919067 
	C259.310944,290.813477 259.241058,290.710052 259.241058,290.710052 
z"/>
<path fill="#E3E3E5" opacity="1.000000" stroke="none" 
	d="
M283.757935,94.339417 
	C284.130981,94.002121 284.545929,93.954681 285.582397,93.828018 
	C286.651062,94.565910 287.098175,95.383034 287.556519,96.488579 
	C287.179260,96.841286 286.790833,96.905571 285.818909,97.061035 
	C284.756866,96.311241 284.278351,95.470268 283.757935,94.339417 
z"/>
<path fill="#E3E3E5" opacity="1.000000" stroke="none" 
	d="
M267.740601,187.063522 
	C268.095520,186.383224 268.450439,185.702911 269.421204,185.256653 
	C270.783508,186.377304 271.529907,187.263901 272.405029,188.474808 
	C271.805817,188.835007 271.077881,188.870895 269.552734,188.719482 
	C268.417175,188.042633 268.078888,187.553085 267.740601,187.063522 
z"/>
<path fill="#E3E3E5" opacity="1.000000" stroke="none" 
	d="
M241.588943,141.816757 
	C242.427017,141.851959 243.284103,141.922394 244.471527,142.302094 
	C243.953537,143.563828 243.105240,144.516296 242.256927,145.468750 
	C242.126389,144.646088 241.995850,143.823410 241.733780,142.389038 
	C241.602249,141.777328 241.607956,141.851990 241.588943,141.816757 
z"/>
<path fill="#E3E3E5" opacity="1.000000" stroke="none" 
	d="
M249.086700,265.281311 
	C249.712738,265.719543 250.369507,266.464264 251.031006,267.550110 
	C250.396271,267.123413 249.756836,266.355591 249.086700,265.281311 
z"/>
<path fill="#E3E4E6" opacity="1.000000" stroke="none" 
	d="
M249.167084,138.330002 
	C248.341690,138.209091 247.516281,138.088181 246.068848,137.892487 
	C246.332092,137.079712 247.217392,136.341690 248.436890,135.501312 
	C248.855408,136.055389 248.939758,136.711838 249.053345,137.826691 
	C249.082565,138.285110 249.167084,138.330002 249.167084,138.330002 
z"/>
<path fill="#E3E3E5" opacity="1.000000" stroke="none" 
	d="
M243.935883,243.242401 
	C244.125534,243.654984 244.129730,244.272980 243.901581,244.960236 
	C243.696304,244.502274 243.723358,243.975021 243.935883,243.242401 
z"/>
<path fill="#232327" opacity="1.000000" stroke="none" 
	d="
M265.004089,34.003960 
	C264.908966,33.134651 264.810089,32.261688 264.711212,31.388725 
	C264.969574,31.386566 265.227936,31.384407 265.486298,31.382248 
	C265.486298,32.141678 265.486298,32.901104 265.239746,33.828098 
	C264.993164,33.995663 265.000336,34.000301 265.004089,34.003960 
z"/>
<path fill="#E3E3E5" opacity="1.000000" stroke="none" 
	d="
M264.362000,143.691620 
	C264.345612,143.366913 264.483093,142.712036 264.895721,142.062637 
	C264.952515,142.499222 264.734192,142.930328 264.362000,143.691620 
z"/>
<path fill="#E3E3E5" opacity="1.000000" stroke="none" 
	d="
M243.524078,252.236008 
	C243.937973,252.531601 244.253418,253.089355 244.379181,253.790009 
	C243.934860,253.454651 243.680237,252.976425 243.524078,252.236008 
z"/>
<path fill="#E3E3E5" opacity="1.000000" stroke="none" 
	d="
M263.870178,70.233574 
	C264.390900,70.329956 264.709167,70.616142 265.239624,71.150162 
	C265.421204,71.776489 265.390594,72.154999 265.193237,72.766403 
	C264.668518,72.853889 264.310577,72.708481 263.479858,72.224525 
	C263.227325,71.398445 263.447510,70.910912 263.870178,70.233574 
z"/>
<path fill="#232327" opacity="1.000000" stroke="none" 
	d="
M249.621765,65.766617 
	C249.963867,66.270126 250.104034,66.636589 250.042419,67.161331 
	C249.577637,67.041824 249.314636,66.764038 249.034576,66.196075 
	C249.017517,65.905907 249.419846,65.629570 249.621765,65.766617 
z"/>
<path fill="#110F14" opacity="1.000000" stroke="none" 
	d="
M149.271118,153.888016 
	C153.090561,165.829178 156.876541,177.781158 160.735840,189.709427 
	C171.761078,223.786118 182.877258,257.833557 193.822556,291.935852 
	C197.158356,302.329193 200.055923,312.863220 203.309967,323.859192 
	C195.171310,323.859192 187.401703,323.956879 179.641464,323.731415 
	C178.707077,323.704254 177.326019,322.074982 176.988602,320.939636 
	C166.186905,284.595886 155.316528,248.270309 144.959274,211.799194 
	C143.400635,206.310745 140.671875,204.863098 135.836288,204.978897 
	C134.670731,205.006821 133.503952,204.982925 132.337723,204.983673 
	C125.184258,204.988220 125.919312,205.096893 124.905067,211.962112 
	C123.594421,220.833664 121.258408,229.592422 118.845474,238.255341 
	C111.088104,266.105804 103.092758,293.889984 95.185867,321.698792 
	C95.009285,322.319855 94.792908,322.929596 94.526703,323.757324 
	C87.838112,323.757324 81.212662,323.757324 73.579956,323.757324 
	C94.524971,256.167694 113.169495,188.208786 141.026169,123.093231 
	C143.393738,132.039017 145.761292,140.984818 147.767273,150.364624 
	C146.600632,149.102081 145.837082,147.384003 144.973480,145.717773 
	C144.523300,144.849167 143.896820,144.071915 143.349976,143.253403 
	C142.899780,143.835388 142.449585,144.417389 141.651489,145.040024 
	C140.066071,145.600296 138.828552,146.119934 137.243820,146.785370 
	C137.463547,144.316315 137.625305,142.498718 137.787064,140.681122 
	C137.371521,140.569504 136.955963,140.457901 136.540421,140.346298 
	C136.020676,141.587753 135.277542,142.785522 135.024567,144.079147 
	C134.359314,147.480774 133.694168,150.906677 133.412384,154.354263 
	C132.706924,162.985229 126.199615,170.033188 127.508881,179.524551 
	C128.031387,183.312378 128.386978,186.018478 131.652496,187.268265 
	C138.802399,190.004669 145.865311,193.927505 154.241089,191.257629 
	C159.101318,190.301743 156.849686,187.487564 155.999054,184.601562 
	C152.998749,174.802078 149.999374,165.401031 147.255920,155.816650 
	C148.098236,155.051544 148.684677,154.469772 149.271118,153.888016 
M182.322769,287.037476 
	C183.521988,286.709930 184.721207,286.382385 185.920425,286.054840 
	C185.485855,285.109467 185.051270,284.164124 184.616699,283.218781 
	C183.775757,284.240387 182.934814,285.261993 182.322769,287.037476 
M159.973175,212.285690 
	C160.215607,213.417450 160.458038,214.549210 160.700485,215.680954 
	C161.377289,215.432709 162.054092,215.184464 162.730911,214.936234 
	C162.051270,213.991440 161.371643,213.046631 159.973175,212.285690 
M173.073151,249.414474 
	C173.652557,250.204605 174.231949,250.994720 174.811340,251.784851 
	C175.211838,251.584122 175.612320,251.383408 176.012802,251.182678 
	C175.584930,249.990555 175.157074,248.798431 174.729233,247.606308 
	C174.176956,247.979462 173.624695,248.352615 173.073151,249.414474 
M165.836685,221.509048 
	C165.421371,221.217041 165.006073,220.925049 164.590759,220.633041 
	C164.479691,221.065369 164.368607,221.497681 164.257538,221.930008 
	C164.742813,221.981842 165.228088,222.033676 165.836685,221.509048 
z"/>
<path fill="#151318" opacity="1.000000" stroke="none" 
	d="
M114.172134,55.993210 
	C115.196686,51.943642 116.221245,47.894077 117.501923,42.832211 
	C124.926079,68.154961 131.984802,92.231293 139.225449,116.928108 
	C134.729416,114.357048 133.934143,117.478973 132.919601,120.232040 
	C127.594452,134.682449 122.279625,149.136688 116.945747,163.583893 
	C116.680511,164.302292 116.270706,164.967300 115.895348,165.723358 
	C110.237190,150.104645 105.271011,134.514587 98.820366,119.565071 
	C96.418785,113.999352 97.172905,109.763969 98.707397,104.829239 
	C103.298851,90.063652 107.845680,75.284187 113.012680,60.305573 
	C115.292175,61.231941 116.968903,62.362877 118.645638,63.493813 
	C118.899376,60.208542 119.153122,56.923275 119.435059,53.272938 
	C116.812607,54.628418 115.492371,55.310814 114.172134,55.993210 
z"/>
<path fill="#100D13" opacity="1.000000" stroke="none" 
	d="
M82.905151,154.774872 
	C82.905151,154.774872 82.908279,154.354065 83.384361,154.163055 
	C86.448929,152.449203 87.838509,150.666840 85.152542,148.002350 
	C86.622864,143.526062 88.093178,139.049759 90.144997,134.354980 
	C91.030334,134.483383 91.646500,134.890701 91.592773,135.168457 
	C89.756264,144.664139 87.985573,154.175949 85.909309,163.620361 
	C84.914040,168.147552 83.323227,172.543823 81.724586,177.278046 
	C80.711632,181.084915 80.183228,184.672211 79.197144,188.128922 
	C77.227158,195.034805 74.624313,201.783600 73.060051,208.771255 
	C72.343979,211.969986 73.467735,215.580551 73.748604,218.903809 
	C76.191002,219.609833 78.595505,220.304916 80.964371,221.344421 
	C80.619156,222.792343 80.309578,223.895874 80.000122,225.421829 
	C79.331963,229.230377 78.663689,232.616486 77.657524,236.040558 
	C76.546417,237.051941 75.773209,238.025360 75.000099,239.423187 
	C74.322105,243.194809 73.868690,246.607162 72.921097,249.876266 
	C70.658432,257.682220 70.782951,266.502899 63.439831,272.243469 
	C62.490768,272.985413 62.225887,274.870209 62.042538,276.277527 
	C61.253868,282.331055 61.203430,288.548798 59.758495,294.430145 
	C58.230572,300.649323 55.612144,306.633759 53.097607,312.562744 
	C51.923473,315.331177 49.926594,316.602631 47.736446,312.936096 
	C47.187191,312.016602 45.669655,311.174927 44.584293,311.158752 
	C38.295162,311.065125 38.319115,311.160858 40.367847,305.124817 
	C40.734211,304.045410 40.819466,302.865936 40.992249,301.726257 
	C41.923134,295.586182 42.406700,289.336487 43.894505,283.335327 
	C45.179920,278.150421 47.742054,273.295135 49.477970,268.204865 
	C50.950176,263.887848 51.828854,259.365173 53.355915,255.070663 
	C56.883751,245.149429 60.888271,235.393066 64.245361,225.417023 
	C67.707855,215.127731 70.692329,204.675186 73.777000,194.261795 
	C77.344490,182.218460 80.839302,170.152740 84.199669,158.050644 
	C84.450272,157.148117 83.367874,155.875458 82.905151,154.774872 
z"/>
<path fill="#0D0B0F" opacity="1.000000" stroke="none" 
	d="
M77.995422,236.002594 
	C78.663689,232.616486 79.331963,229.230377 80.354126,225.349747 
	C81.137856,223.570557 81.567688,222.285889 82.136375,220.691864 
	C82.848564,218.920944 83.421906,217.459351 84.004135,215.611572 
	C85.023010,212.301620 85.981903,209.357620 87.119843,206.484512 
	C87.237251,206.188065 88.422134,206.314407 89.111710,206.244568 
	C83.095703,226.353073 77.119278,246.473541 71.051155,266.566315 
	C66.215668,282.577606 61.270187,298.555695 56.368843,314.547119 
	C55.479603,317.448395 54.567684,320.342712 53.552925,323.604492 
	C45.426327,323.604492 36.930077,323.604492 28.219181,323.604492 
	C32.694504,309.475372 36.916500,295.794830 41.360409,282.186768 
	C51.654026,250.665848 62.118511,219.200638 72.377266,187.668442 
	C75.875267,176.916702 78.965477,166.032303 82.573578,154.991699 
	C83.367874,155.875458 84.450272,157.148117 84.199669,158.050644 
	C80.839302,170.152740 77.344490,182.218460 73.777000,194.261795 
	C70.692329,204.675186 67.707855,215.127731 64.245361,225.417023 
	C60.888271,235.393066 56.883751,245.149429 53.355915,255.070663 
	C51.828854,259.365173 50.950176,263.887848 49.477970,268.204865 
	C47.742054,273.295135 45.179920,278.150421 43.894505,283.335327 
	C42.406700,289.336487 41.923134,295.586182 40.992249,301.726257 
	C40.819466,302.865936 40.734211,304.045410 40.367847,305.124817 
	C38.319115,311.160858 38.295162,311.065125 44.584293,311.158752 
	C45.669655,311.174927 47.187191,312.016602 47.736446,312.936096 
	C49.926594,316.602631 51.923473,315.331177 53.097607,312.562744 
	C55.612144,306.633759 58.230572,300.649323 59.758495,294.430145 
	C61.203430,288.548798 61.253868,282.331055 62.042538,276.277527 
	C62.225887,274.870209 62.490768,272.985413 63.439831,272.243469 
	C70.782951,266.502899 70.658432,257.682220 72.921097,249.876266 
	C73.868690,246.607162 74.322105,243.194809 75.338333,239.384933 
	C76.449455,237.949036 77.222435,236.975815 77.995422,236.002594 
M50.503254,320.722107 
	C49.946499,320.612793 49.389744,320.503448 48.832989,320.394135 
	C48.827339,320.791718 48.821690,321.189270 48.816040,321.586853 
	C49.375782,321.492340 49.935524,321.397858 50.503254,320.722107 
z"/>
<path fill="#121015" opacity="1.000000" stroke="none" 
	d="
M89.464775,206.016998 
	C88.422134,206.314407 87.237251,206.188065 87.119843,206.484512 
	C85.981903,209.357620 85.023010,212.301620 83.658241,215.673431 
	C82.535652,217.747650 81.767830,219.373825 81.000000,221.000000 
	C78.595505,220.304916 76.191002,219.609833 73.748604,218.903809 
	C73.467735,215.580551 72.343979,211.969986 73.060051,208.771255 
	C74.624313,201.783600 77.227158,195.034805 79.197144,188.128922 
	C80.183228,184.672211 80.711632,181.084915 82.070587,177.339203 
	C85.319832,178.914154 85.389992,180.745392 83.419579,183.313507 
	C82.580612,184.406967 83.028824,186.488022 82.892082,188.120270 
	C84.540466,187.706787 86.193726,187.311356 87.834076,186.868103 
	C88.288460,186.745331 88.704468,186.480560 89.138084,186.280945 
	C89.258446,186.711411 89.378807,187.141891 89.499168,187.572372 
	C91.737984,187.139893 94.355515,187.273331 96.101738,186.104767 
	C97.636292,185.077835 99.469070,182.046860 98.956085,180.849747 
	C97.101669,176.522354 99.752548,174.616623 102.108490,171.870651 
	C104.287315,175.295685 106.190948,178.288116 108.094574,181.280548 
	C108.823212,180.903564 109.551857,180.526596 110.280495,180.149612 
	C109.441803,178.197113 108.680054,176.206833 107.745049,174.301605 
	C106.562065,171.891052 104.947784,169.655350 104.038055,167.155533 
	C102.374245,162.583603 100.796875,157.936493 99.775757,153.193222 
	C99.280479,150.892624 100.124863,148.303604 100.362747,145.845169 
	C104.436378,155.977768 108.565590,166.088821 112.511124,176.271057 
	C112.987595,177.500671 112.777756,179.210861 112.363899,180.535156 
	C110.089920,187.811798 107.796272,195.090729 105.142761,202.232651 
	C104.656906,203.540344 102.575348,204.833939 101.065292,205.067703 
	C97.367523,205.640137 93.573265,205.589401 89.464775,206.016998 
z"/>
<path fill="#0E0C10" opacity="1.000000" stroke="none" 
	d="
M142.145081,270.941162 
	C147.024094,285.904114 151.909866,300.864838 156.775574,315.832123 
	C157.591385,318.341644 158.320343,320.879456 159.208344,323.794525 
	C152.087189,323.794525 145.268890,323.794525 138.315247,323.794525 
	C132.863403,302.567993 127.320374,281.774292 122.352486,260.844055 
	C121.554245,257.481018 123.014160,253.425827 123.974716,249.836304 
	C125.617516,243.697250 127.690910,237.673416 130.066498,231.473404 
	C131.100510,231.623688 131.651489,231.901779 132.202484,232.179840 
	C134.174850,240.185364 136.147217,248.190887 137.676025,256.524109 
	C135.259079,252.301682 133.285690,247.751556 131.087830,242.683868 
	C129.812973,244.034485 128.517532,244.757706 128.377762,245.659958 
	C127.445793,251.675995 123.301186,256.931213 127.414993,264.027924 
	C130.885315,270.014587 131.173401,277.815216 133.125595,284.740845 
	C133.478500,285.992798 135.122299,287.847900 136.077820,287.793823 
	C140.002731,287.571625 141.257248,290.104340 142.461838,292.934692 
	C143.257233,294.803619 144.027664,296.683167 144.809296,298.557953 
	C145.371857,298.400482 145.934433,298.243011 146.496994,298.085541 
	C144.835739,290.379395 143.110687,282.685852 141.577652,274.954285 
	C141.329605,273.703278 141.934464,272.283142 142.145081,270.941162 
z"/>
<path fill="#151318" opacity="1.000000" stroke="none" 
	d="
M100.341110,145.465958 
	C100.124863,148.303604 99.280479,150.892624 99.775757,153.193222 
	C100.796875,157.936493 102.374245,162.583603 104.038055,167.155533 
	C104.947784,169.655350 106.562065,171.891052 107.745049,174.301605 
	C108.680054,176.206833 109.441803,178.197113 110.280495,180.149612 
	C109.551857,180.526596 108.823212,180.903564 108.094574,181.280548 
	C106.190948,178.288116 104.287315,175.295685 102.108490,171.870651 
	C99.752548,174.616623 97.101669,176.522354 98.956085,180.849747 
	C99.469070,182.046860 97.636292,185.077835 96.101738,186.104767 
	C94.355515,187.273331 91.737984,187.139893 89.499168,187.572372 
	C89.378807,187.141891 89.258446,186.711411 89.138084,186.280945 
	C88.704468,186.480560 88.288460,186.745331 87.834076,186.868103 
	C86.193726,187.311356 84.540466,187.706787 82.892082,188.120270 
	C83.028824,186.488022 82.580612,184.406967 83.419579,183.313507 
	C85.389992,180.745392 85.319832,178.914154 82.348129,177.060547 
	C83.323227,172.543823 84.914040,168.147552 85.909309,163.620361 
	C87.985573,154.175949 89.756264,144.664139 91.592773,135.168457 
	C91.646500,134.890701 91.030334,134.483383 90.395691,134.069473 
	C90.954781,131.074799 91.844688,128.147110 93.062485,124.140709 
	C95.758720,131.922928 98.039101,138.504837 100.341110,145.465958 
z"/>
<path fill="#0D090F" opacity="1.000000" stroke="none" 
	d="
M142.089020,270.619080 
	C141.934464,272.283142 141.329605,273.703278 141.577652,274.954285 
	C143.110687,282.685852 144.835739,290.379395 146.496994,298.085541 
	C145.934433,298.243011 145.371857,298.400482 144.809296,298.557953 
	C144.027664,296.683167 143.257233,294.803619 142.461838,292.934692 
	C141.257248,290.104340 140.002731,287.571625 136.077820,287.793823 
	C135.122299,287.847900 133.478500,285.992798 133.125595,284.740845 
	C131.173401,277.815216 130.885315,270.014587 127.414993,264.027924 
	C123.301186,256.931213 127.445793,251.675995 128.377762,245.659958 
	C128.517532,244.757706 129.812973,244.034485 131.087830,242.683868 
	C133.285690,247.751556 135.259079,252.301682 137.580658,256.926270 
	C137.928848,257.000702 138.124405,257.342651 138.171555,257.792542 
	C138.452484,258.493195 138.686249,258.743958 138.920044,258.994690 
	C138.980667,259.420532 139.041290,259.846375 138.862183,260.812531 
	C138.532791,264.404755 137.786407,267.736877 141.886185,269.001007 
	C141.935120,269.432983 141.984039,269.864990 142.089020,270.619080 
z"/>
<path fill="#121015" opacity="1.000000" stroke="none" 
	d="
M123.955070,301.610382 
	C123.283241,302.902710 122.399734,303.695190 121.993385,304.683807 
	C120.824318,307.528107 119.296982,311.197388 116.001656,309.626648 
	C113.791946,308.573395 112.972137,304.562012 111.587097,301.845306 
	C111.144127,300.976471 110.882660,300.015106 110.187866,299.039398 
	C109.868362,298.415405 109.899147,297.848083 110.457581,297.062775 
	C111.448769,296.585541 111.912315,296.326294 112.375870,296.067017 
	C111.837761,295.703705 111.299637,295.340363 110.761513,294.977051 
	C112.427361,288.221832 114.093208,281.466583 116.216904,274.363220 
	C117.060112,274.018646 117.445473,274.022278 117.830826,274.025879 
	C119.874321,283.083923 121.917816,292.142029 123.955070,301.610382 
z"/>
<path fill="#39353B" opacity="1.000000" stroke="none" 
	d="
M75.145508,284.502960 
	C81.706734,260.611908 89.498268,237.140747 97.936707,213.890366 
	C98.573685,214.098740 99.210655,214.307114 99.847633,214.515503 
	C92.271194,238.136246 84.694763,261.756989 76.548645,285.289551 
	C75.701134,284.968567 75.423325,284.735748 75.145508,284.502960 
z"/>
<path fill="#39353B" opacity="1.000000" stroke="none" 
	d="
M70.369179,306.443909 
	C68.418938,312.300476 66.618820,317.788452 64.757004,323.255371 
	C64.636375,323.609558 64.040833,323.802063 62.536491,323.628052 
	C66.341301,311.499939 70.146111,299.371796 73.950920,287.243683 
	C74.762489,287.472687 75.574059,287.701721 76.385628,287.930756 
	C74.425415,293.977295 72.465202,300.023865 70.369179,306.443909 
z"/>
<path fill="#232327" opacity="1.000000" stroke="none" 
	d="
M146.008408,254.889313 
	C143.875443,247.373627 141.778259,240.262268 139.681091,233.150925 
	C140.357605,232.961487 141.034119,232.772064 141.710632,232.582626 
	C145.079575,244.191528 148.448517,255.800446 151.817459,267.409363 
	C151.297989,267.574341 150.778519,267.739349 150.259048,267.904358 
	C148.854111,263.700775 147.449158,259.497223 146.008408,254.889313 
z"/>
<path fill="#484649" opacity="1.000000" stroke="none" 
	d="
M132.376282,231.798035 
	C131.651489,231.901779 131.100510,231.623688 130.347198,231.214813 
	C132.001297,225.481369 133.857758,219.878738 135.714203,214.276093 
	C136.180008,214.458908 136.645813,214.641724 137.111618,214.824539 
	C137.724838,218.923965 138.338058,223.023376 138.951279,227.122787 
	C138.592819,227.228302 138.234360,227.333817 137.875916,227.439331 
	C137.362885,225.980042 136.849854,224.520752 135.886215,221.779724 
	C134.531586,225.692596 133.540817,228.554413 132.376282,231.798035 
z"/>
<path fill="#39353B" opacity="1.000000" stroke="none" 
	d="
M160.070099,292.990784 
	C162.787430,301.588287 165.517426,310.181854 168.193222,318.792267 
	C168.369080,319.358154 168.130783,320.052795 168.085129,320.687561 
	C167.634201,320.819031 167.183289,320.950531 166.732361,321.082031 
	C163.816757,311.981873 160.901169,302.881683 158.322540,293.380493 
	C159.129715,292.983215 159.599915,292.987000 160.070099,292.990784 
z"/>
<path fill="#1E1C24" opacity="1.000000" stroke="none" 
	d="
M113.960991,56.278252 
	C115.492371,55.310814 116.812607,54.628418 119.435059,53.272938 
	C119.153122,56.923275 118.899376,60.208542 118.645638,63.493813 
	C116.968903,62.362877 115.292175,61.231941 113.260635,60.032509 
	C113.187164,58.830441 113.468506,57.696865 113.960991,56.278252 
z"/>
<path fill="#484649" opacity="1.000000" stroke="none" 
	d="
M160.068573,292.592102 
	C159.599915,292.987000 159.129715,292.983215 158.307159,292.994843 
	C153.368851,281.238129 153.229675,280.497528 155.276215,276.290649 
	C156.977676,281.938507 158.522369,287.065948 160.068573,292.592102 
z"/>
<path fill="#110F14" opacity="1.000000" stroke="none" 
	d="
M141.999390,144.999390 
	C142.449585,144.417389 142.899780,143.835388 143.349976,143.253403 
	C143.896820,144.071915 144.523300,144.849167 144.973480,145.717773 
	C145.837082,147.384003 146.600632,149.102081 147.796509,150.778778 
	C148.187302,150.758896 148.123566,150.775894 148.192719,151.015945 
	C148.487854,151.502441 148.713852,151.748871 148.939850,151.995300 
	C149.013580,152.415802 149.087311,152.836288 149.216095,153.572403 
	C148.684677,154.469772 148.098236,155.051544 146.947327,155.648941 
	C144.921707,152.109512 143.460556,148.554443 141.999390,144.999390 
z"/>
<path fill="#0E0C10" opacity="1.000000" stroke="none" 
	d="
M141.990158,268.623993 
	C137.786407,267.736877 138.532791,264.404755 138.911224,261.132385 
	C140.164719,263.356964 141.129425,265.801971 141.990158,268.623993 
z"/>
<path fill="#0D0B0F" opacity="1.000000" stroke="none" 
	d="
M85.064056,148.361404 
	C87.838509,150.666840 86.448929,152.449203 83.496750,153.985199 
	C83.747231,152.239044 84.361397,150.479752 85.064056,148.361404 
z"/>
<path fill="#2D2C30" opacity="1.000000" stroke="none" 
	d="
M117.882965,273.702332 
	C117.445473,274.022278 117.060112,274.018646 116.385727,274.015594 
	C116.393173,273.215881 116.689644,272.415588 116.986115,271.615326 
	C117.302444,272.203156 117.618782,272.790985 117.882965,273.702332 
z"/>
<path fill="#060509" opacity="1.000000" stroke="none" 
	d="
M110.552673,295.238037 
	C111.299637,295.340363 111.837761,295.703705 112.375870,296.067017 
	C111.912315,296.326294 111.448769,296.585541 110.638779,296.831360 
	C110.309494,296.378265 110.326660,295.938660 110.552673,295.238037 
z"/>
<path fill="#39353B" opacity="1.000000" stroke="none" 
	d="
M76.343002,285.605225 
	C76.250526,286.502106 75.794006,286.995209 75.337494,287.488281 
	C75.141113,286.728577 74.944725,285.968842 74.946930,284.856049 
	C75.423325,284.735748 75.701134,284.968567 76.343002,285.605225 
z"/>
<path fill="#110F14" opacity="1.000000" stroke="none" 
	d="
M149.034363,151.705170 
	C148.713852,151.748871 148.487854,151.502441 148.220474,151.003647 
	C148.495667,150.972549 148.812271,151.193787 149.034363,151.705170 
z"/>
<path fill="#0E0C10" opacity="1.000000" stroke="none" 
	d="
M138.988983,258.699341 
	C138.686249,258.743958 138.452484,258.493195 138.156677,257.988953 
	C138.415756,257.958282 138.736832,258.181152 138.988983,258.699341 
z"/>
<path fill="#0F0F11" opacity="1.000000" stroke="none" 
	d="
M248.968399,138.623962 
	C249.167084,138.330002 249.082565,138.285110 249.115524,138.319138 
	C253.008957,136.175980 256.869415,133.998795 261.389893,131.937439 
	C262.371552,132.372452 262.693268,132.691666 262.793213,133.264374 
	C260.713470,134.686569 258.855499,135.855225 256.641907,137.087708 
	C255.565491,138.859024 254.844681,140.566559 254.123871,142.274078 
	C243.051315,153.650635 241.500427,164.553879 252.349915,175.678055 
	C254.222290,177.597839 256.925201,178.707565 259.088623,180.531677 
	C258.294189,181.248383 257.655640,181.624893 256.777100,182.198135 
	C257.275452,183.690750 258.225250,184.918198 258.674835,186.307510 
	C258.956512,187.177963 258.485748,188.291885 258.352570,189.296570 
	C254.485153,186.524155 250.076172,184.268433 246.848648,180.885529 
	C235.763306,169.266449 234.784073,160.548691 242.192780,145.810089 
	C243.105240,144.516296 243.953537,143.563828 244.901016,142.306488 
	C246.256683,140.973724 247.513199,139.945831 248.968399,138.623962 
z"/>
<path fill="#0D090F" opacity="1.000000" stroke="none" 
	d="
M260.110443,234.996704 
	C259.208588,235.863785 258.306763,236.730865 256.818970,237.631805 
	C252.140747,237.503082 250.264038,241.458725 252.222473,246.523651 
	C252.337418,249.992386 252.474533,253.009750 252.611664,256.027100 
	C252.413803,257.405609 252.215958,258.784149 252.009323,260.813965 
	C252.000534,261.465240 251.985382,261.962311 251.985382,261.962311 
	C243.826752,251.009903 245.576859,237.008347 255.962112,230.509644 
	C256.750885,230.016068 257.792114,229.925873 259.162506,229.277832 
	C260.332977,228.247040 261.056946,227.586609 261.780914,226.926163 
	C262.888000,225.984787 263.995117,225.043411 265.753479,224.153442 
	C267.523071,224.895233 268.641418,225.585587 269.759796,226.275955 
	C266.925110,228.630157 264.090424,230.984360 260.855530,233.701309 
	C260.340393,234.374939 260.225403,234.685837 260.110443,234.996704 
z"/>
<path fill="#19181D" opacity="1.000000" stroke="none" 
	d="
M270.046631,226.139679 
	C268.641418,225.585587 267.523071,224.895233 266.051147,224.024963 
	C271.191711,215.202927 271.662262,206.489685 266.510071,197.333801 
	C268.417786,195.654099 269.883331,194.331207 271.348877,193.008301 
	C271.947693,194.088181 272.546509,195.168045 273.147064,196.879593 
	C273.439728,197.649704 273.730652,197.788116 274.021576,197.926544 
	C274.086151,198.389709 274.150726,198.852890 274.167114,199.915802 
	C274.411530,200.680222 274.704102,200.844894 274.996704,201.009552 
	C277.397888,210.078857 275.962585,218.432358 270.046631,226.139679 
z"/>
<path fill="#181819" opacity="1.000000" stroke="none" 
	d="
M271.233551,192.702057 
	C269.883331,194.331207 268.417786,195.654099 266.537048,196.965454 
	C266.121826,196.953918 265.967499,197.060715 265.950897,196.785614 
	C265.622864,196.340332 265.311432,196.170135 265.000000,195.999939 
	C265.000000,195.999939 264.900635,195.666168 264.919525,195.108887 
	C264.614258,192.188492 264.367737,189.729874 260.882874,191.254425 
	C260.153687,190.787643 259.424469,190.320847 258.523926,189.575317 
	C258.485748,188.291885 258.956512,187.177963 258.674835,186.307510 
	C258.225250,184.918198 257.275452,183.690750 257.067200,182.342072 
	C258.866150,182.953766 260.380066,185.367615 261.057007,181.804794 
	C262.943329,183.338058 264.829651,184.871338 267.204346,186.543610 
	C267.611938,186.784180 267.655090,186.916122 267.781372,187.070969 
	C268.078888,187.553085 268.417175,188.042633 269.006287,188.704102 
	C269.877472,190.049271 270.497833,191.222534 271.233551,192.702057 
z"/>
<path fill="#1E1C24" opacity="1.000000" stroke="none" 
	d="
M260.136810,252.057678 
	C260.141052,258.122345 260.141052,263.699280 260.141052,269.558777 
	C255.806442,267.019501 255.714890,246.150650 260.132568,241.824310 
	C260.132568,245.457626 260.132568,248.513794 260.136810,252.057678 
z"/>
<path fill="#232327" opacity="1.000000" stroke="none" 
	d="
M260.255676,199.078094 
	C260.035889,207.343094 262.903198,215.514130 259.414062,223.050171 
	C258.952332,223.000916 258.490631,222.951660 258.028900,222.902405 
	C258.028900,214.140259 258.028900,205.378128 258.028900,196.615982 
	C258.302338,196.542084 258.575775,196.468185 258.849213,196.394287 
	C259.290649,197.152023 259.732056,197.909775 260.255676,199.078094 
z"/>
<path fill="#484649" opacity="1.000000" stroke="none" 
	d="
M265.566223,214.924988 
	C265.099731,215.749817 264.780975,216.282120 263.998505,217.588760 
	C263.998505,211.925125 263.998505,207.145615 263.998505,201.609467 
	C267.424957,206.091949 267.149200,210.286819 265.566223,214.924988 
z"/>
<path fill="#19181D" opacity="1.000000" stroke="none" 
	d="
M259.546143,290.348694 
	C259.241058,290.710052 259.310944,290.813477 259.361328,290.777222 
	C258.819977,289.915375 257.750122,289.108704 257.716644,288.261108 
	C257.543762,283.886902 257.636383,279.502197 258.420410,275.095337 
	C260.618774,279.923981 260.703705,284.909058 259.546143,290.348694 
z"/>
<path fill="#2D2C30" opacity="1.000000" stroke="none" 
	d="
M252.244644,246.072250 
	C250.264038,241.458725 252.140747,237.503082 256.554199,237.799362 
	C255.564972,240.373566 254.254578,242.814087 252.776672,245.673737 
	C252.609146,246.092834 252.244644,246.072250 252.244644,246.072250 
z"/>
<path fill="#E3E3E5" opacity="1.000000" stroke="none" 
	d="
M252.222473,246.523651 
	C252.244644,246.072250 252.609146,246.092834 252.783493,246.038788 
	C253.058029,249.221359 253.158218,252.457977 252.935028,255.860840 
	C252.474533,253.009750 252.337418,249.992386 252.222473,246.523651 
z"/>
<path fill="#0F0F11" opacity="1.000000" stroke="none" 
	d="
M261.015198,191.544678 
	C264.367737,189.729874 264.614258,192.188492 264.915710,194.934799 
	C263.644531,194.156967 262.396057,192.995941 261.015198,191.544678 
z"/>
<path fill="#E3E3E5" opacity="1.000000" stroke="none" 
	d="
M261.445129,226.932434 
	C261.056946,227.586609 260.332977,228.247040 259.300598,228.942932 
	C259.697937,228.298477 260.403656,227.618591 261.445129,226.932434 
z"/>
<path fill="#E3E3E5" opacity="1.000000" stroke="none" 
	d="
M252.132599,262.183380 
	C251.985382,261.962311 252.000534,261.465240 252.078186,261.229034 
	C252.594666,261.443268 253.033478,261.893707 253.472290,262.344147 
	C253.074814,262.364258 252.677307,262.384369 252.132599,262.183380 
z"/>
<path fill="#E3E3E5" opacity="1.000000" stroke="none" 
	d="
M265.082062,196.208160 
	C265.311432,196.170135 265.622864,196.340332 265.857056,196.783569 
	C265.521759,196.894043 265.316498,196.680618 265.082062,196.208160 
z"/>
<path fill="#E3E3E5" opacity="1.000000" stroke="none" 
	d="
M273.947998,197.738861 
	C273.730652,197.788116 273.439728,197.649704 273.217316,197.262787 
	C273.537262,197.132721 273.733459,197.311676 273.947998,197.738861 
z"/>
<path fill="#E3E3E5" opacity="1.000000" stroke="none" 
	d="
M274.933197,200.810150 
	C274.704102,200.844894 274.411530,200.680222 274.206909,200.265930 
	C274.547455,200.155457 274.739075,200.353607 274.933197,200.810150 
z"/>
<path fill="#E3E3E5" opacity="1.000000" stroke="none" 
	d="
M260.308899,234.875137 
	C260.225403,234.685837 260.340393,234.374939 260.723511,234.019730 
	C260.921051,234.291321 260.759613,234.550705 260.308899,234.875137 
z"/>
<path fill="#121213" opacity="1.000000" stroke="none" 
	d="
M263.014954,133.010864 
	C262.693268,132.691666 262.371552,132.372452 261.733978,131.916595 
	C264.717407,129.228912 268.016724,126.677895 271.864594,124.289322 
	C274.796417,123.546570 277.234344,122.759758 279.543365,121.693748 
	C281.033813,121.005653 282.335266,119.908302 283.721436,118.994347 
	C281.373230,122.589226 279.025055,126.184113 276.477631,130.047897 
	C275.414642,130.889313 274.550903,131.461853 273.200317,131.826538 
	C269.443726,128.276428 267.738434,133.578629 264.646057,133.016205 
	C263.884827,133.012085 263.449890,133.011475 263.014954,133.010864 
z"/>
<path fill="#181819" opacity="1.000000" stroke="none" 
	d="
M257.009705,159.005753 
	C257.633362,154.196396 255.157486,149.313828 259.801117,145.651367 
	C259.801117,155.379105 259.801117,165.106857 259.801117,174.834595 
	C255.077072,170.295090 257.860229,164.609970 257.009705,159.005753 
z"/>
<path fill="#19181D" opacity="1.000000" stroke="none" 
	d="
M253.077362,162.566864 
	C253.389343,165.222610 253.679672,167.431381 254.016968,169.997589 
	C247.999954,165.099945 247.608917,158.445648 253.055710,149.843201 
	C253.055710,154.491486 253.055710,158.305679 253.077362,162.566864 
z"/>
<path fill="#161518" opacity="1.000000" stroke="none" 
	d="
M262.793213,133.264374 
	C263.449890,133.011475 263.884827,133.012085 264.606720,133.395142 
	C264.643585,135.012375 264.393494,136.247177 264.143433,137.481995 
	C262.329041,138.319885 260.514648,139.157806 258.332611,139.704498 
	C257.642487,138.616821 257.320038,137.820358 256.997559,137.023895 
	C258.855499,135.855225 260.713470,134.686569 262.793213,133.264374 
z"/>
<path fill="#0F0F11" opacity="1.000000" stroke="none" 
	d="
M264.464600,137.465424 
	C264.393494,136.247177 264.643585,135.012375 264.933044,133.398651 
	C267.738434,133.578629 269.443726,128.276428 272.897522,131.900085 
	C271.267670,133.474487 269.453857,134.767471 267.054962,136.075470 
	C266.309937,136.392532 266.149933,136.694580 265.989960,136.996643 
	C265.588593,137.147369 265.187195,137.298111 264.464600,137.465424 
z"/>
<path fill="#232327" opacity="1.000000" stroke="none" 
	d="
M256.641907,137.087708 
	C257.320038,137.820358 257.642487,138.616821 257.990479,139.736359 
	C256.932220,140.752335 255.848419,141.445236 254.444244,142.206100 
	C254.844681,140.566559 255.565491,138.859024 256.641907,137.087708 
z"/>
<path fill="#232327" opacity="1.000000" stroke="none" 
	d="
M260.988373,181.583160 
	C260.380066,185.367615 258.866150,182.953766 257.307159,182.145355 
	C257.655640,181.624893 258.294189,181.248383 259.311829,180.818161 
	C260.100525,180.963470 260.510132,181.162491 260.988373,181.583160 
z"/>
<path fill="#E3E3E5" opacity="1.000000" stroke="none" 
	d="
M266.190796,136.927704 
	C266.149933,136.694580 266.309937,136.392532 266.727905,136.178558 
	C266.848907,136.525330 266.650818,136.722702 266.190796,136.927704 
z"/>
<path fill="#0F0F11" opacity="1.000000" stroke="none" 
	d="
M283.953003,118.692993 
	C282.335266,119.908302 281.033813,121.005653 279.543365,121.693748 
	C277.234344,122.759758 274.796417,123.546570 272.183350,124.174149 
	C273.681976,120.746040 275.410339,117.595543 277.279449,114.145187 
	C278.498169,113.084465 279.571411,112.316734 280.655273,111.564331 
	C282.331848,110.400459 284.015686,109.247078 286.108795,108.123550 
	C285.742310,111.569115 284.963470,114.980377 283.953003,118.692993 
z"/>
<path fill="#E3E4E6" opacity="1.000000" stroke="none" 
	d="
M273.488220,100.000916 
	C268.106934,90.805542 259.779205,86.898132 249.449280,85.085869 
	C249.026901,84.357819 249.006088,84.120049 248.985275,83.882286 
	C259.926056,81.920891 270.701752,88.107712 276.007568,98.541885 
	C275.296875,99.269272 274.557648,99.632744 273.488220,100.000916 
z"/>
<path fill="#D4D6D9" opacity="1.000000" stroke="none" 
	d="
M248.659760,83.765755 
	C249.006088,84.120049 249.026901,84.357819 249.082230,84.951958 
	C249.099472,85.691010 249.082214,86.073700 248.984589,86.737442 
	C248.516876,87.057419 248.129517,87.096344 247.148712,87.161789 
	C246.555252,87.188316 246.508423,87.310623 246.508423,87.310623 
	C246.682983,86.435265 246.857529,85.559906 247.019547,84.319710 
	C247.449432,83.852997 247.891846,83.751114 248.659760,83.765755 
z"/>
<path fill="#EAEDEF" opacity="1.000000" stroke="none" 
	d="
M278.478333,84.463501 
	C278.544800,84.952240 278.222717,85.310028 277.524323,85.577911 
	C277.461914,85.102844 277.775848,84.717697 278.478333,84.463501 
z"/>
<path fill="#232327" opacity="1.000000" stroke="none" 
	d="
M257.033936,108.470398 
	C256.909576,106.010078 256.868439,104.011314 256.697723,101.667892 
	C258.795410,100.522850 260.065369,101.056252 260.083160,103.668938 
	C260.133942,111.129715 260.322937,118.591019 260.238586,126.049637 
	C260.226227,127.141357 259.019745,128.219574 258.365814,129.304031 
	C257.949585,129.176239 257.533386,129.048431 257.117188,128.920624 
	C257.117188,122.257736 257.117188,115.594849 257.033936,108.470398 
z"/>
<path fill="#E3E4E6" opacity="1.000000" stroke="none" 
	d="
M254.245865,96.909500 
	C254.179184,96.697807 254.312393,96.384155 254.720490,96.089958 
	C254.877579,96.393623 254.694366,96.626328 254.245865,96.909500 
z"/>
<path fill="#232327" opacity="1.000000" stroke="none" 
	d="
M246.571442,87.249985 
	C247.204056,88.267105 247.820450,89.222572 248.701782,90.588684 
	C247.247955,90.781403 246.178146,91.126518 245.159576,91.012764 
	C243.434723,90.820145 241.742264,90.337654 240.036179,89.977020 
	C242.001602,89.090858 243.967026,88.204704 246.220428,87.314590 
	C246.508423,87.310623 246.555252,87.188316 246.571442,87.249985 
z"/>
<path fill="#070707" opacity="1.000000" stroke="none" 
	d="
M255.233582,37.354450 
	C263.853455,35.217506 268.599976,39.669449 271.933472,45.716591 
	C272.909729,52.509476 270.043335,57.355503 265.106842,61.674332 
	C262.436279,62.652386 259.946747,63.334564 257.087097,64.082565 
	C246.619278,60.394772 246.916382,47.582432 251.922501,40.849545 
	C252.803085,39.665237 253.996460,38.713493 255.233582,37.354450 
z"/>
<path fill="#010102" opacity="1.000000" stroke="none" 
	d="
M273.469849,44.856438 
	C272.913239,42.619156 272.647888,40.409588 272.670227,38.177830 
	C273.470062,39.648365 274.121033,41.113094 274.430267,42.646725 
	C274.566071,43.320171 274.005463,44.134041 273.469849,44.856438 
z"/>
<path fill="#010102" opacity="1.000000" stroke="none" 
	d="
M273.075012,58.637474 
	C272.519104,59.005177 272.077240,59.169220 271.635406,59.333267 
	C271.592926,59.054020 271.550476,58.774773 271.508026,58.495522 
	C272.068359,58.474953 272.628723,58.454384 273.075012,58.637474 
z"/>
<path fill="#121015" opacity="1.000000" stroke="none" 
	d="
M141.651489,145.040024 
	C143.460556,148.554443 144.921707,152.109512 146.691437,155.832275 
	C149.999374,165.401031 152.998749,174.802078 155.646652,184.646057 
	C151.473328,186.316513 153.908646,188.915054 154.000000,191.000000 
	C145.865311,193.927505 138.802399,190.004669 131.652496,187.268265 
	C128.386978,186.018478 128.031387,183.312378 127.508881,179.524551 
	C126.199615,170.033188 132.706924,162.985229 133.412384,154.354263 
	C133.694168,150.906677 134.359314,147.480774 135.024567,144.079147 
	C135.277542,142.785522 136.020676,141.587753 136.540421,140.346298 
	C136.955963,140.457901 137.371521,140.569504 137.787064,140.681122 
	C137.625305,142.498718 137.463547,144.316315 137.243820,146.785370 
	C138.828552,146.119934 140.066071,145.600296 141.651489,145.040024 
z"/>
<path fill="#110F14" opacity="1.000000" stroke="none" 
	d="
M154.241089,191.257629 
	C153.908646,188.915054 151.473328,186.316513 155.647583,185.044495 
	C156.849686,187.487564 159.101318,190.301743 154.241089,191.257629 
z"/>
<path fill="#110F14" opacity="1.000000" stroke="none" 
	d="
M182.208313,286.660522 
	C182.934814,285.261993 183.775757,284.240387 184.616699,283.218750 
	C185.051270,284.164124 185.485855,285.109467 185.920425,286.054840 
	C184.721207,286.382385 183.521988,286.709930 182.208313,286.660522 
z"/>
<path fill="#110F14" opacity="1.000000" stroke="none" 
	d="
M160.332596,212.193756 
	C161.371643,213.046631 162.051270,213.991440 162.730911,214.936218 
	C162.054092,215.184464 161.377289,215.432709 160.700485,215.680969 
	C160.458038,214.549210 160.215607,213.417450 160.332596,212.193756 
z"/>
<path fill="#110F14" opacity="1.000000" stroke="none" 
	d="
M173.072784,249.070129 
	C173.624695,248.352615 174.176956,247.979462 174.729218,247.606293 
	C175.157074,248.798431 175.584930,249.990555 176.012802,251.182678 
	C175.612320,251.383408 175.211838,251.584122 174.811340,251.784851 
	C174.231949,250.994720 173.652557,250.204605 173.072784,249.070129 
z"/>
<path fill="#110F14" opacity="1.000000" stroke="none" 
	d="
M165.775024,221.797287 
	C165.228088,222.033676 164.742813,221.981842 164.257538,221.930008 
	C164.368607,221.497681 164.479691,221.065369 164.590759,220.633041 
	C165.006073,220.925049 165.421371,221.217041 165.775024,221.797287 
z"/>
<path fill="#121015" opacity="1.000000" stroke="none" 
	d="
M77.657516,236.040558 
	C77.222435,236.975815 76.449455,237.949036 75.338242,238.960526 
	C75.773209,238.025360 76.546417,237.051941 77.657516,236.040558 
z"/>
<path fill="#121015" opacity="1.000000" stroke="none" 
	d="
M81.997528,221.001221 
	C81.567688,222.285889 81.137856,223.570557 80.354019,224.927307 
	C80.309578,223.895874 80.619156,222.792343 81.213745,221.344727 
	C81.498764,221.000610 81.997536,221.001221 81.997528,221.001221 
z"/>
<path fill="#100D13" opacity="1.000000" stroke="none" 
	d="
M82.136383,220.691864 
	C81.997536,221.001221 81.498764,221.000610 81.249390,221.000305 
	C81.767830,219.373825 82.535652,217.747650 83.649361,216.059631 
	C83.421906,217.459351 82.848564,218.920944 82.136383,220.691864 
z"/>
<path fill="#100D13" opacity="1.000000" stroke="none" 
	d="
M50.499260,321.012756 
	C49.935524,321.397858 49.375782,321.492340 48.816040,321.586853 
	C48.821690,321.189270 48.827339,320.791718 48.832989,320.394135 
	C49.389744,320.503448 49.946499,320.612793 50.499260,321.012756 
z"/>
</svg>